<?xml version="1.0" encoding="utf-8"?>
<!-- Generator: Adobe Illustrator 18.1.1, SVG Export Plug-In . SVG Version: 6.00 Build 0)  -->
<svg version="1.1" id="layer_1" xmlns="http://www.w3.org/2000/svg" xmlns:xlink="http://www.w3.org/1999/xlink" x="0px" y="0px"
	 viewBox="0 0 375 375" enable-background="new 0 0 375 375" xml:space="preserve">
<g>
	<path fill="#E9EBFE" d="M187.6,375C85.1,375.3-2.7,291.1,0.1,182C2.5,84.7,83.1-2.9,193.7,0.1c96.6,2.6,184.6,82.8,181.2,194.3
		C372,291.6,292.1,374.7,187.6,375z M200.3,203.7c5.4,4.7,11.5,8.7,16.1,14.4c7.5,9.3,11.2,19.5,8.4,31.6
		c-4.1,17.4-22.7,34.9-41.9,36c-10.4,0.6-20.3-1.3-28.9-7.2c-17.6-12.1-25-35.1-18.4-55.4c2.4-7.3,2.4-7.3,9.1-4.2
		c0.1,0.1,0.2,0.1,0.3,0.2c2.4,1.4,3,0.4,2.9-2c-0.4-6.2-0.3-12.5-1-18.7c-0.7-5.9-0.3-11.9-1.6-17.7c-1.2-0.1-1.9,0.7-2.7,1.2
		c-8.7,5.7-17.3,11.4-25.9,17.1c-5.1,3.4-5.1,3.5,0.6,6.2c2.5,1.2,3.2,2.2,1.9,5c-5.6,12.4-7.2,25.4-5,38.8
		c3.3,19.8,12.7,35.7,29.8,46.8c14.4,9.4,30.4,11.7,47,9c19.2-3.2,33.5-14.3,44.2-30.1c16.5-24.5,13.5-52.2-7-73.4
		c-14.1-14.5-32.7-21.5-49.5-31.5c-3.8-3-7.6-6.1-10.8-9.8c-8.5-9.7-12.3-20.7-9.3-33.6c1.9-8.2,6.2-15.2,11.7-21.5
		c18.1-20.8,43-21.8,61.8-6.9c11.8,9.4,23.1,29,14.2,52.8c-2.7,7.2-2.5,7.3-9.3,4.3c-0.1-0.1-0.2-0.1-0.3-0.2
		c-1.8-1.1-2.4-0.7-2.3,1.4c0.4,6.2,0.6,12.5,1,18.7c0.4,6.3,1.1,12.6,1.7,19.3c9.4-6.2,18.5-12.2,27.5-18.2c1.9-1.3,5.2-2,5.1-4.2
		c-0.1-1.7-3.5-2.4-5.5-3.2c-3.2-1.2-3.5-2.8-2.1-5.9c9-20.7,9.4-41.3-2.3-61.1c-13.6-23.1-34-34-60.9-32.5
		c-13.6,0.7-25,6.8-35,15.4c-13.8,11.8-23.1,26.3-25,44.6c-2.2,20.9,6.8,37.3,22.1,50.8C172.4,190.2,186.8,196.1,200.3,203.7z"/>
	<path fill="#8C8EF9" d="M178.4,169.6c16.8,10,35.5,17,49.5,31.5c20.5,21.2,23.5,48.9,7,73.4c-10.7,15.8-25,26.9-44.2,30.1
		c-16.6,2.7-32.5,0.3-47-9c-17-11.1-26.5-27-29.8-46.8c-2.2-13.4-0.6-26.4,5-38.8c1.3-2.8,0.6-3.8-1.9-5c-5.7-2.7-5.6-2.8-0.6-6.2
		c8.6-5.7,17.3-11.4,25.9-17.1c0.8-0.5,1.5-1.4,2.7-1.2c1.3,5.8,1,11.8,1.6,17.7c0.7,6.2,0.7,12.4,1,18.7c0.1,2.4-0.5,3.4-2.9,2
		c-0.1-0.1-0.2-0.1-0.3-0.2c-6.7-3.1-6.7-3.1-9.1,4.2c-6.6,20.4,0.8,43.3,18.4,55.4c8.6,5.9,18.5,7.8,28.9,7.2
		c19.3-1,37.8-18.6,41.9-36c2.9-12.1-0.8-22.3-8.4-31.6c-4.6-5.7-10.7-9.7-16.1-14.4c-1.9-6-6.3-10.4-9.5-15.5
		C186.8,181.9,181.7,176.4,178.4,169.6z"/>
	<path fill="#51559C" d="M178.4,169.6c3.3,6.7,8.4,12.3,12.4,18.6c3.3,5.1,7.6,9.5,9.5,15.5c-13.5-7.6-27.9-13.4-39.7-23.8
		c-15.3-13.5-24.3-29.9-22.1-50.8c1.9-18.3,11.2-32.9,25-44.6c10.1-8.6,21.5-14.6,35-15.4c26.9-1.5,47.3,9.5,60.9,32.5
		c11.7,19.8,11.4,40.4,2.3,61.1c-1.4,3.1-1.1,4.7,2.1,5.9c2,0.8,5.4,1.5,5.5,3.2c0.1,2.2-3.2,3-5.1,4.2c-9,6-18,12-27.5,18.2
		c-0.6-6.7-1.3-13-1.7-19.3c-0.4-6.2-0.6-12.5-1-18.7c-0.1-2.1,0.5-2.5,2.3-1.4c0.1,0.1,0.2,0.1,0.3,0.2c6.8,3,6.6,2.9,9.3-4.3
		c8.9-23.8-2.4-43.4-14.2-52.8c-18.8-15-43.7-13.9-61.8,6.9c-5.5,6.3-9.8,13.3-11.7,21.5c-3,12.9,0.8,23.9,9.3,33.6
		C170.8,163.6,174.6,166.6,178.4,169.6z"/>
</g>
</svg>
