<?xml version="1.0" encoding="utf-8"?>
<!-- Generator: Adobe Illustrator 18.1.1, SVG Export Plug-In . SVG Version: 6.00 Build 0)  -->
<svg version="1.1" id="LAYER_1" xmlns="http://www.w3.org/2000/svg" xmlns:xlink="http://www.w3.org/1999/xlink" x="0px" y="0px"
	 viewBox="0 0 60 59.9" enable-background="new 0 0 60 59.9" xml:space="preserve">
<g>
	<path d="M60,30c0,16.5-13.4,29.8-29.9,29.8c-16.7,0-30.3-13.5-30-30.1C0.3,12.9,12.9,0.1,29.9,0C47.2-0.1,59.9,13.4,60,30z M44,11
		c-2.6,4.2-5.7,5.8-10.6,3.2c-1.8-1-5.1-1-6.8,0c-5,3-7.9,0.1-11-3.1c-1.4,1.7-2.7,3.3-4.1,5.2c4.5,2.6,5.1,5.8,2.8,10.1
		c-0.8,1.4-0.9,3.8-0.2,5.4c2.2,5.1,1.5,9.3-3.3,12.1c1.8,2,3.2,3.5,5,5.5c1.8-2.3,3.4-4.4,5.1-6.5c6.3,4,12.2,3.6,17.8,0.4
		c2.1,2,4,3.8,5.9,5.6c1.7-1.8,3.1-3.4,3.7-4.1c-1.7-2.5-3.1-4.7-3.9-5.9c0.6-4.2,2.4-8.4,1.3-11.4c-2-5.3-1.3-8.9,3.4-11.9
		C47.1,13.8,45.6,12.5,44,11z"/>
	<path d="M29.8,38.9c-5.6,0-10.1-4.3-9.8-9.5c0.2-4.6,5.2-9.4,9.8-9.5c4.8-0.1,9.9,4.9,10,9.7C39.9,34.9,35.6,38.9,29.8,38.9z"/>
</g>
</svg>
